<svg xmlns="http://www.w3.org/2000/svg" xmlns:xlink="http://www.w3.org/1999/xlink" viewBox="0 0 130.9 102.74"><defs><style>.cls-1{fill:none;}.cls-2{fill:#dbaa6a;}.cls-3{fill:#2e2633;}.cls-4{isolation:isolate;}.cls-5{clip-path:url(#clip-path);}.cls-6{fill:#991b3d;}.cls-7{clip-path:url(#clip-path-2);}.cls-8{clip-path:url(#clip-path-3);}.cls-9{fill:#542437;}.cls-10{clip-path:url(#clip-path-4);}.cls-11{fill:#f7e6b5;}.cls-12{clip-path:url(#clip-path-5);}.cls-13{clip-path:url(#clip-path-6);}.cls-14{fill:#ecd078;}.cls-15{clip-path:url(#clip-path-7);}.cls-16{clip-path:url(#clip-path-8);}.cls-17{clip-path:url(#clip-path-9);}.cls-18{fill:#211b20;}</style><clipPath id="clip-path"><polygon id="_Clipping_Path_" data-name="&lt;Clipping Path&gt;" class="cls-1" points="0.01 57.82 65.23 19.92 130.88 57.82 65.66 95.72 0.01 57.82"/></clipPath><clipPath id="clip-path-2"><polygon id="_Clipping_Path_2" data-name="&lt;Clipping Path&gt;" class="cls-1" points="0.01 65.05 0.03 57.82 65.53 95.5 65.51 102.73 0.01 65.05"/></clipPath><clipPath id="clip-path-3"><polygon id="_Clipping_Path_3" data-name="&lt;Clipping Path&gt;" class="cls-1" points="65.54 102.74 65.52 95.52 130.88 57.82 130.9 65.05 65.54 102.74"/></clipPath><clipPath id="clip-path-4"><polygon id="_Clipping_Path_4" data-name="&lt;Clipping Path&gt;" class="cls-1" points="9.62 50.93 65.34 18.55 121.43 50.93 65.7 83.32 9.62 50.93"/></clipPath><clipPath id="clip-path-5"><polygon id="_Clipping_Path_5" data-name="&lt;Clipping Path&gt;" class="cls-2" points="9.62 57.11 9.63 50.93 65.59 83.12 65.58 89.3 9.62 57.11"/></clipPath><clipPath id="clip-path-6"><polygon id="_Clipping_Path_6" data-name="&lt;Clipping Path&gt;" class="cls-1" points="65.6 89.31 65.58 83.14 121.43 50.93 121.44 57.11 65.6 89.31"/></clipPath><clipPath id="clip-path-7"><polygon id="_Clipping_Path_7" data-name="&lt;Clipping Path&gt;" class="cls-1" points="0 37.9 65.22 0 130.87 37.9 65.65 75.81 0 37.9"/></clipPath><clipPath id="clip-path-8"><polygon id="_Clipping_Path_8" data-name="&lt;Clipping Path&gt;" class="cls-1" points="0 45.13 0.02 37.9 65.52 75.58 65.5 82.81 0 45.13"/></clipPath><clipPath id="clip-path-9"><polygon id="_Clipping_Path_9" data-name="&lt;Clipping Path&gt;" class="cls-1" points="65.53 82.82 65.51 75.6 130.87 37.9 130.89 45.13 65.53 82.82"/></clipPath></defs><title>Asset 3</title><g id="Layer_2" data-name="Layer 2"><g id="Layer_3" data-name="Layer 3"><polyline class="cls-3" points="0.01 65.05 65.54 102.74 130.9 65.05 130.87 37.9 65.22 0 0.02 37.9 0 45.13 9.62 50.66 9.63 52.23 0.03 57.82 0.01 65.05"/></g><g id="Layer_8" data-name="Layer 8"><g id="_Group_" data-name="&lt;Group&gt;"><g id="_Group_2" data-name="&lt;Group&gt;"><g id="_Group_3" data-name="&lt;Group&gt;"><g id="_Clip_Group_" data-name="&lt;Clip Group&gt;" class="cls-4"><g class="cls-5"><g id="_Group_4" data-name="&lt;Group&gt;"><polyline id="_Path_" data-name="&lt;Path&gt;" class="cls-6" points="130.88 57.82 65.23 19.92 0.01 57.82 65.66 95.72 130.88 57.82"/></g></g></g></g><g id="_Group_5" data-name="&lt;Group&gt;"><g id="_Clip_Group_2" data-name="&lt;Clip Group&gt;" class="cls-4"><g class="cls-7"><g id="_Group_6" data-name="&lt;Group&gt;"><polyline id="_Path_2" data-name="&lt;Path&gt;" class="cls-3" points="65.53 95.5 0.03 57.82 0.01 65.05 65.51 102.73 65.53 95.5"/></g></g></g></g><g id="_Group_7" data-name="&lt;Group&gt;"><g id="_Clip_Group_3" data-name="&lt;Clip Group&gt;" class="cls-4"><g class="cls-8"><g id="_Group_8" data-name="&lt;Group&gt;"><polyline id="_Path_3" data-name="&lt;Path&gt;" class="cls-9" points="130.88 57.82 130.9 65.05 65.54 102.74 65.52 95.52 130.88 57.82"/></g></g></g></g></g><g id="_Group_9" data-name="&lt;Group&gt;"><g id="_Clip_Group_4" data-name="&lt;Clip Group&gt;" class="cls-4"><g class="cls-10"><g id="_Group_10" data-name="&lt;Group&gt;"><polyline id="_Path_4" data-name="&lt;Path&gt;" class="cls-11" points="121.43 50.93 65.34 18.55 9.62 50.93 65.7 83.32 121.43 50.93"/></g></g></g></g><g id="_Group_11" data-name="&lt;Group&gt;"><g id="_Clip_Group_6" data-name="&lt;Clip Group&gt;" class="cls-4"><polygon id="_Clipping_Path_10" data-name="&lt;Clipping Path&gt;" class="cls-2" points="9.62 57.11 9.63 50.93 65.59 83.12 65.58 89.3 9.62 57.11"/><g class="cls-12"><g id="_Group_12" data-name="&lt;Group&gt;"><g id="_Group_13" data-name="&lt;Group&gt;"><polyline class="cls-2" points="65.59 83.12 9.63 50.93 9.62 57.11 65.58 89.3 65.59 83.12"/></g></g></g></g></g><g id="_Group_14" data-name="&lt;Group&gt;"><g id="_Clip_Group_8" data-name="&lt;Clip Group&gt;" class="cls-4"><g class="cls-13"><g id="_Group_15" data-name="&lt;Group&gt;"><polyline id="_Path_5" data-name="&lt;Path&gt;" class="cls-14" points="121.43 50.93 121.44 57.11 65.6 89.31 65.58 83.14 121.43 50.93"/></g></g></g></g><g id="_Group_16" data-name="&lt;Group&gt;"><polygon class="cls-3" points="0 45.13 65.53 82.82 130.89 45.13 130.87 37.9 18.65 31.29 0.02 37.9 0 45.13"/><g id="_Group_17" data-name="&lt;Group&gt;"><g id="_Clip_Group_9" data-name="&lt;Clip Group&gt;" class="cls-4"><g class="cls-15"><g id="_Group_18" data-name="&lt;Group&gt;"><polyline id="_Path_6" data-name="&lt;Path&gt;" class="cls-6" points="130.87 37.9 65.22 0 0 37.9 65.65 75.81 130.87 37.9"/></g></g></g></g><g id="_Group_19" data-name="&lt;Group&gt;"><g id="_Clip_Group_10" data-name="&lt;Clip Group&gt;" class="cls-4"><g class="cls-16"><g id="_Group_20" data-name="&lt;Group&gt;"><polyline id="_Path_7" data-name="&lt;Path&gt;" class="cls-3" points="65.52 75.58 0.02 37.9 0 45.13 65.5 82.81 65.52 75.58"/></g></g></g></g><g id="_Group_21" data-name="&lt;Group&gt;"><g id="_Clip_Group_11" data-name="&lt;Clip Group&gt;" class="cls-4"><g class="cls-17"><g id="_Group_22" data-name="&lt;Group&gt;"><polyline id="_Path_8" data-name="&lt;Path&gt;" class="cls-9" points="130.87 37.9 65.51 75.6 65.53 82.82 130.89 45.13 130.87 37.9 130.87 65.05"/></g></g></g></g></g><polygon id="_Path_9" data-name="&lt;Path&gt;" class="cls-11" points="16.53 57.82 14.3 62.83 37.6 70.12 16.53 57.82"/><g id="_Group_23" data-name="&lt;Group&gt;"><g id="_Group_24" data-name="&lt;Group&gt;"><polyline id="_Path_10" data-name="&lt;Path&gt;" class="cls-18" points="115.49 67.98 115.49 68.95 114.55 68.18 115.29 67.86 115.49 67.98"/><polyline id="_Path_11" data-name="&lt;Path&gt;" class="cls-18" points="121.44 63.06 121.44 64.02 119.59 62.98 121.44 63.06"/><polyline id="_Path_12" data-name="&lt;Path&gt;" class="cls-18" points="106.33 62.45 106.42 63.47 107.88 63.76 107.4 63.1 106.33 62.45"/><g id="_Group_25" data-name="&lt;Group&gt;"><polygon id="_Path_13" data-name="&lt;Path&gt;" class="cls-18" points="113.61 59.25 121.44 64.02 114.97 63.77 115.49 68.95 106.42 63.47 113.61 59.25"/></g></g><g id="_Group_26" data-name="&lt;Group&gt;"><polygon id="_Path_14" data-name="&lt;Path&gt;" class="cls-3" points="113.52 58.23 121.44 63.06 114.97 62.8 115.49 67.98 106.33 62.45 113.52 58.23"/></g></g><polygon id="_Path_15" data-name="&lt;Path&gt;" class="cls-3" points="121.44 57.11 126.45 60.4 126.45 47.69 121.44 50.58 121.44 57.11"/><polygon id="_Path_16" data-name="&lt;Path&gt;" class="cls-9" points="126.45 46.66 126.45 63.59 130.87 61.88 130.9 43.76 126.45 46.66"/></g></g></g></svg>