<svg xmlns="http://www.w3.org/2000/svg" viewBox="0 0 365 821"><defs><style>.cls-1{fill:#fff;}</style></defs><title>icons</title><g id="Layer_5" data-name="Layer 5"><path class="cls-1" d="M64.31,97.5a21,21,0,0,1,5-13.79,15.87,15.87,0,0,1,12-5.71h93a15.87,15.87,0,0,0,12-5.71,21,21,0,0,0,5-13.79c0-10.77-7.59-19.5-16.95-19.5h-11.3C153.59,39,146,30.27,146,19.5a21,21,0,0,1,5-13.79,15.87,15.87,0,0,1,12-5.71H270.71c9.36,0,16.95,8.73,16.95,19.5a21,21,0,0,1-5,13.79,15.87,15.87,0,0,1-12,5.71H252a15.92,15.92,0,0,0-11.55,5.7,21,21,0,0,0-5,13.79c0,10.6,7.35,19.23,16.51,19.48v0h21.29c9.36,0,16.95,8.73,16.95,19.5a21,21,0,0,1-5,13.79,15.87,15.87,0,0,1-12,5.71H194.23a15.87,15.87,0,0,0-12,5.71,21,21,0,0,0-5,13.79c0,10.77,7.59,19.5,16.95,19.5h89.51c9.36,0,16.95,8.73,16.95,19.5a21,21,0,0,1-5,13.79,15.87,15.87,0,0,1-12,5.71H91.68c-9.36,0-16.95-8.73-16.95-19.5a21,21,0,0,1,5-13.79,15.87,15.87,0,0,1,12-5.71h22.6a15.87,15.87,0,0,0,12-5.71,21,21,0,0,0,5-13.79c0-10.77-7.59-19.5-16.95-19.5h-33C71.9,117,64.31,108.27,64.31,97.5Z"/><rect class="cls-1" x="19.99" y="78" width="79.08" height="39" rx="19.5" ry="19.5" transform="translate(119.06 195) rotate(180)"/><path class="cls-1" d="M44.32,254.5a21,21,0,0,1,5-13.79,15.87,15.87,0,0,1,12-5.71h93a15.87,15.87,0,0,0,12-5.71,21,21,0,0,0,5-13.79c0-10.77-7.59-19.5-16.95-19.5H143c-9.36,0-16.95-8.73-16.95-19.5a21,21,0,0,1,5-13.79A15.87,15.87,0,0,1,143,157H250.72c9.36,0,16.95,8.73,16.95,19.5a21,21,0,0,1-5,13.79,15.87,15.87,0,0,1-12,5.71H232a15.92,15.92,0,0,0-11.55,5.7,21,21,0,0,0-5,13.79c0,10.6,7.35,19.23,16.51,19.48v0h21.29c9.36,0,16.95,8.73,16.95,19.5a21,21,0,0,1-5,13.79,15.87,15.87,0,0,1-12,5.71H174.24a15.87,15.87,0,0,0-12,5.71,21,21,0,0,0-5,13.79c0,10.77,7.59,19.5,16.95,19.5h89.51c9.36,0,16.95,8.73,16.95,19.5a21,21,0,0,1-5,13.79,15.87,15.87,0,0,1-12,5.71H71.7c-9.36,0-16.95-8.73-16.95-19.5a21,21,0,0,1,5-13.79,15.87,15.87,0,0,1,12-5.71h22.6a15.87,15.87,0,0,0,12-5.71,21,21,0,0,0,5-13.79c0-10.77-7.59-19.5-16.95-19.5h-33C51.91,274,44.32,265.27,44.32,254.5Z"/><rect class="cls-1" y="235" width="79.08" height="39" rx="19.5" ry="19.5" transform="translate(79.08 509) rotate(180)"/><path class="cls-1" d="M365,409.5a21,21,0,0,0-5-13.79,15.87,15.87,0,0,0-12-5.71h-93a15.87,15.87,0,0,1-12-5.71,21,21,0,0,1-5-13.79c0-10.77,7.59-19.5,16.95-19.5h11.3c9.36,0,16.95-8.73,16.95-19.5a21,21,0,0,0-5-13.79,15.87,15.87,0,0,0-12-5.71H158.6c-9.36,0-16.95,8.73-16.95,19.5a21,21,0,0,0,5,13.79,15.87,15.87,0,0,0,12,5.71h18.68a15.92,15.92,0,0,1,11.55,5.7,21,21,0,0,1,5,13.79c0,10.6-7.35,19.23-16.51,19.48v0H156c-9.36,0-16.95,8.73-16.95,19.5a21,21,0,0,0,5,13.79A15.87,15.87,0,0,0,156,429h79.08a15.87,15.87,0,0,1,12,5.71,21,21,0,0,1,5,13.79c0,10.77-7.59,19.5-16.95,19.5H145.57c-9.36,0-16.95,8.73-16.95,19.5a21,21,0,0,0,5,13.79,15.87,15.87,0,0,0,12,5.71H337.63c9.36,0,16.95-8.73,16.95-19.5a21,21,0,0,0-5-13.79,15.87,15.87,0,0,0-12-5.71H315a15.87,15.87,0,0,1-12-5.71,21,21,0,0,1-5-13.79c0-10.77,7.59-19.5,16.95-19.5h33C357.41,429,365,420.27,365,409.5Z"/><path class="cls-1" d="M67.79,566.5a21,21,0,0,1,5-13.79,15.87,15.87,0,0,1,12-5.71h93a15.87,15.87,0,0,0,12-5.71,21,21,0,0,0,5-13.79c0-10.77-7.59-19.5-16.95-19.5h-11.3c-9.36,0-16.95-8.73-16.95-19.5a21,21,0,0,1,5-13.79,15.87,15.87,0,0,1,12-5.71H274.18c9.36,0,16.95,8.73,16.95,19.5a21,21,0,0,1-5,13.79,15.87,15.87,0,0,1-12,5.71H255.5a15.92,15.92,0,0,0-11.55,5.7,21,21,0,0,0-5,13.79c0,10.6,7.35,19.23,16.51,19.48v0h21.29c9.36,0,16.95,8.73,16.95,19.5a21,21,0,0,1-5,13.79,15.87,15.87,0,0,1-12,5.71H197.71a15.87,15.87,0,0,0-12,5.71,21,21,0,0,0-5,13.79c0,10.77,7.59,19.5,16.95,19.5h89.51c9.36,0,16.95,8.73,16.95,19.5a21,21,0,0,1-5,13.79,15.87,15.87,0,0,1-12,5.71H95.16c-9.36,0-16.95-8.73-16.95-19.5a21,21,0,0,1,5-13.79,15.87,15.87,0,0,1,12-5.71h22.6a15.87,15.87,0,0,0,12-5.71,21,21,0,0,0,5-13.79c0-10.77-7.59-19.5-16.95-19.5h-33C75.37,586,67.79,577.27,67.79,566.5Z"/><rect class="cls-1" x="23.46" y="547" width="79.08" height="39" rx="19.5" ry="19.5" transform="translate(126.01 1133) rotate(-180)"/><path class="cls-1" d="M47.8,723.5a21,21,0,0,1,5-13.79,15.87,15.87,0,0,1,12-5.71h93a15.87,15.87,0,0,0,12-5.71,21,21,0,0,0,5-13.79c0-10.77-7.59-19.5-16.95-19.5h-11.3c-9.36,0-16.95-8.73-16.95-19.5a21,21,0,0,1,5-13.79,15.87,15.87,0,0,1,12-5.71H254.2c9.36,0,16.95,8.73,16.95,19.5a21,21,0,0,1-5,13.79,15.87,15.87,0,0,1-12,5.71H235.51a15.92,15.92,0,0,0-11.55,5.7,21,21,0,0,0-5,13.79c0,10.6,7.35,19.23,16.51,19.48v0H256.8c9.36,0,16.95,8.73,16.95,19.5a21,21,0,0,1-5,13.79,15.87,15.87,0,0,1-12,5.71H177.72a15.87,15.87,0,0,0-12,5.71,21,21,0,0,0-5,13.79c0,10.77,7.59,19.5,16.95,19.5h89.51c9.36,0,16.95,8.73,16.95,19.5a21,21,0,0,1-5,13.79,15.87,15.87,0,0,1-12,5.71H75.17c-9.36,0-16.95-8.73-16.95-19.5a21,21,0,0,1,5-13.79,15.87,15.87,0,0,1,12-5.71h22.6a15.87,15.87,0,0,0,12-5.71,21,21,0,0,0,5-13.79c0-10.77-7.59-19.5-16.95-19.5h-33C55.38,743,47.8,734.27,47.8,723.5Z"/></g></svg>