<svg xmlns="http://www.w3.org/2000/svg" viewBox="0 0 120 120"><defs><style>.cls-1{fill:#f5ebe4;}</style></defs><title>icons</title><g id="Layer_5" data-name="Layer 5"><path class="cls-1" d="M35.47,98.67a15.09,15.09,0,0,1-3.13-.32C19.42,95.59,9.76,75,12.84,56.83,16,38.27,31.61,26.87,44,22.75a47.2,47.2,0,0,1,15.59-2.36,46.86,46.86,0,0,1,15.59,2.36c12.42,4.12,28,15.52,31.2,34.08,3.09,18.2-6.57,38.77-19.5,41.53h0c-4.26.91-10.39,0-13.81-4.24-3.21-4-3.44-10.15-.83-16.58H47c2.61,6.44,2.38,12.62-.83,16.58C43.51,97.37,39.24,98.67,35.47,98.67Zm50.81-3.35h0Zm-44.34-24H77.32A3.1,3.1,0,0,1,80,76.06c-3.44,5.56-4.28,11.38-2,14.15,1.68,2.07,5.23,2.62,7.71,2.09,8.65-1.85,17.32-18.88,14.69-34.44C97.63,42,84.07,32.21,73.27,28.63a40.94,40.94,0,0,0-13.44-2h-.41a40.79,40.79,0,0,0-13.44,2C35.19,32.21,21.63,42,18.95,57.86,16.31,73.42,25,90.45,33.63,92.3c2.52.53,6.09-.1,7.71-2.09,2.24-2.76,1.4-8.58-2-14.15a3.1,3.1,0,0,1,2.63-4.73ZM60.31,20.47h0Zm0,0h0Zm0,0h0Zm-1.2,0h0Z"/><path class="cls-1" d="M39,62a8.48,8.48,0,1,1,8.48-8.48A8.49,8.49,0,0,1,39,62Zm0-10.76a2.28,2.28,0,1,0,2.28,2.28A2.29,2.29,0,0,0,39,51.26Z"/><circle class="cls-1" cx="82.76" cy="59.34" r="3.58"/><circle class="cls-1" cx="76.31" cy="53.61" r="3.58"/><circle class="cls-1" cx="89.22" cy="53.61" r="3.58"/><circle class="cls-1" cx="82.76" cy="47.16" r="3.58"/></g></svg>