<?xml version="1.0" encoding="utf-8"?>
<!-- Generator: Adobe Illustrator 21.0.0, SVG Export Plug-In . SVG Version: 6.00 Build 0)  -->
<svg version="1.1" id="Layer_1" xmlns="http://www.w3.org/2000/svg" xmlns:xlink="http://www.w3.org/1999/xlink" x="0px" y="0px"
	 viewBox="0 0 1122.6 561.9" style="enable-background:new 0 0 1122.6 561.9;" xml:space="preserve">
<style type="text/css">
	.st0{fill:#E8EDEB;}
	.st1{opacity:0.2;enable-background:new    ;}
	.st2{fill:#768A24;}
	.st3{fill:#FFFFFF;}
</style>
<title>paper</title>
<g id="Layer_2">
	<g id="Layer_9">
		<polygon class="st0" points="43.7,561.9 0,91.2 964.6,0 1017.8,561.9 		"/>
		<path class="st1" d="M1369.9,367.1h230.2c11.6,0,20.9,9.4,20.9,20.9v62.8c0,11.6-9.4,20.9-20.9,20.9h-230.2
			c-11.6,0-20.9-9.4-20.9-20.9V388C1349,376.5,1358.3,367.1,1369.9,367.1z"/>
		<path class="st2" d="M1362.9,360.1h230.2c11.6,0,20.9,9.4,20.9,20.9v62.8c0,11.6-9.4,20.9-20.9,20.9h-230.2
			c-11.6,0-20.9-9.4-20.9-20.9V381C1342,369.5,1351.4,360.1,1362.9,360.1z"/>
		<rect x="57.5" y="619.9" class="st1" width="1080.3" height="503.1"/>
		<path class="st1" d="M1414.3,216.8h230.2c11.6,0,20.9,9.4,20.9,20.9v62.8c0,11.6-9.4,20.9-20.9,20.9h-230.2
			c-11.6,0-20.9-9.4-20.9-20.9v-62.8C1393.4,226.2,1402.7,216.8,1414.3,216.8z"/>
		<rect x="42.3" y="40.4" class="st3" width="1080.3" height="521.5"/>
		<path class="st2" d="M1409.1,211.6h230.2c11.6,0,20.9,9.4,20.9,20.9v62.8c0,11.6-9.4,20.9-20.9,20.9h-230.2
			c-11.6,0-20.9-9.4-20.9-20.9v-62.8C1388.1,221,1397.5,211.6,1409.1,211.6z"/>
	</g>
</g>
</svg>
