<?xml version="1.0" encoding="utf-8"?>
<!-- Generator: Adobe Illustrator 21.0.2, SVG Export Plug-In . SVG Version: 6.00 Build 0)  -->
<svg version="1.1" id="Layer_1" xmlns="http://www.w3.org/2000/svg" xmlns:xlink="http://www.w3.org/1999/xlink" x="0px" y="0px"
	 viewBox="0 0 1213.2 43" style="enable-background:new 0 0 1213.2 43;" xml:space="preserve">
<style type="text/css">
	.st0{clip-path:url(#SVGID_2_);}
	.st1{fill:#E8EDEB;}
	.st2{opacity:0.2;enable-background:new    ;}
	.st3{fill:#768A24;}
	.st4{fill:#FFFFFF;}
</style>
<title>paper</title>
<g>
	<defs>
		<rect id="SVGID_1_" width="1213.2" height="43"/>
	</defs>
	<clipPath id="SVGID_2_">
		<use xlink:href="#SVGID_1_"  style="overflow:visible;"/>
	</clipPath>
	<g id="Layer_2" class="st0">
		<g id="Layer_9">
			
				<rect x="-100.4" y="-1229.2" transform="matrix(9.410834e-02 -0.9956 0.9956 9.410834e-02 1264.8817 -99.3582)" class="st1" width="1356.5" height="968.9"/>
			<path class="st2" d="M917.6-1098.5h230.2c11.6,0,20.9,9.4,20.9,20.9v62.8c0,11.6-9.4,20.9-20.9,20.9H917.6
				c-11.6,0-20.9-9.4-20.9-20.9v-62.8C896.7-1089.1,906-1098.5,917.6-1098.5z"/>
			<path class="st3" d="M910.6-1105.4h230.2c11.6,0,20.9,9.4,20.9,20.9v62.8c0,11.6-9.4,20.9-20.9,20.9H910.6
				c-11.6,0-20.9-9.4-20.9-20.9v-62.8C889.7-1096.1,899.1-1105.4,910.6-1105.4z"/>
			<rect x="15.2" y="-1406.7" class="st2" width="1080.3" height="1449.7"/>
			<path class="st2" d="M962-1248.7h230.2c11.6,0,20.9,9.4,20.9,20.9v62.8c0,11.6-9.4,20.9-20.9,20.9H962
				c-11.6,0-20.9-9.4-20.9-20.9v-62.8C941.1-1239.4,950.4-1248.7,962-1248.7z"/>
			<rect y="-1425.1" class="st4" width="1080.3" height="1449.7"/>
			<path class="st3" d="M956.8-1254H1187c11.6,0,20.9,9.4,20.9,20.9v62.8c0,11.6-9.4,20.9-20.9,20.9H956.8
				c-11.6,0-20.9-9.4-20.9-20.9v-62.8C935.8-1244.6,945.2-1254,956.8-1254z"/>
		</g>
	</g>
</g>
</svg>
